Coordinates
version=1
nRows=13
nColumns=22
inDegrees=yes

Units are S.I. units (second, meters, Newtons, ...)
If the header above contains a line with 'inDegrees', this indicates whether rotational values are in degrees (yes) or radians (no).

endheader
time	pelvis_tilt	pelvis_list	pelvis_rotation	pelvis_tx	pelvis_ty	pelvis_tz	hip_flexion_r	hip_adduction_r	hip_rotation_r	knee_angle_r	ankle_angle_r	subtalar_angle_r	hip_flexion_l	hip_adduction_l	hip_rotation_l	knee_angle_l	ankle_angle_l	subtalar_angle_l	lumbar_extension	lumbar_bending	lumbar_rotation
      0.01000000	      1.66392701	     -0.63385495	      2.32400022	     -1.14405234	      1.08057957	     -0.56023510	     -4.55888576	      2.38781123	     -2.88355638	     -8.49088637	     11.77564050	     -4.49253449	     -2.83453502	     -1.10789932	     -0.72292052	    -11.50550240	     13.57372097	      0.25767289	     -2.69035185	     -1.54625954	     -5.66588181
      0.02000000	      1.64020042	     -0.65685034	      2.29271981	     -1.14411556	      1.08057850	     -0.56010638	     -4.57195019	      2.41458873	     -2.83192234	     -8.40499872	     11.73673800	     -4.48305578	     -2.80825383	     -1.13399832	     -0.74584197	    -11.50487093	     13.57872840	      0.26031392	     -2.70205382	     -1.53571794	     -5.65734738
      0.03000000	      1.61546299	     -0.67499487	      2.25588258	     -1.14417850	      1.08058260	     -0.55995177	     -4.58787242	      2.43634221	     -2.79227623	     -8.31075651	     11.69326123	     -4.47322459	     -2.78161390	     -1.15635154	     -0.78750348	    -11.50351494	     13.57191683	      0.26204867	     -2.71705935	     -1.53631748	     -5.63638564
      0.04000000	      1.58927667	     -0.69658740	      2.20736746	     -1.14424175	      1.08058960	     -0.55979483	     -4.60659342	      2.45975543	     -2.74513419	     -8.20767949	     11.64347814	     -4.46296686	     -2.75659011	     -1.18007599	     -0.83122084	    -11.49878984	     13.56536079	      0.26348038	     -2.73074992	     -1.53034958	     -5.60859378
      0.05000000	      1.56092170	     -0.71860770	      2.15808769	     -1.14429885	      1.08059468	     -0.55962721	     -4.62663772	      2.48437087	     -2.70031844	     -8.09806871	     11.59038193	     -4.45271565	     -2.73129261	     -1.20511002	     -0.88057311	    -11.49095774	     13.55797914	      0.26472271	     -2.74176817	     -1.52702863	     -5.57542591
      0.06000000	      1.53134973	     -0.74111856	      2.10710791	     -1.14435239	      1.08059834	     -0.55946282	     -4.64541228	      2.50879282	     -2.65959061	     -7.98922712	     11.53779947	     -4.44172936	     -2.70655545	     -1.23033974	     -0.93237726	    -11.48024027	     13.55133006	      0.26591807	     -2.74964424	     -1.52366683	     -5.53580253
      0.07000000	      1.50156615	     -0.76423748	      2.05368094	     -1.14440466	      1.08059867	     -0.55930087	     -4.66169469	      2.53371360	     -2.61810439	     -7.88513027	     11.48395879	     -4.42801388	     -2.68229918	     -1.25583645	     -0.98884404	    -11.46857446	     13.54612103	      0.26698731	     -2.75595895	     -1.51997965	     -5.49024400
      0.08000000	      1.47266365	     -0.78649988	      2.00148609	     -1.14444824	      1.08059540	     -0.55914583	     -4.67581252	      2.55729309	     -2.58095264	     -7.78868944	     11.43534238	     -4.41125012	     -2.65911112	     -1.28043909	     -1.04693884	    -11.45754500	     13.54348480	      0.26738849	     -2.76079205	     -1.51838054	     -5.43863016
      0.09000000	      1.44629445	     -0.80846368	      1.95160355	     -1.14448236	      1.08059051	     -0.55899960	     -4.68877307	      2.58039818	     -2.54505190	     -7.70151916	     11.39224964	     -4.39122190	     -2.63740495	     -1.30460683	     -1.10556532	    -11.44925064	     13.54404851	      0.26633392	     -2.76614768	     -1.51905986	     -5.38039505
      0.10000000	      1.42468925	     -0.82021522	      1.92406629	     -1.14450817	      1.08057804	     -0.55890690	     -4.69981060	      2.59255027	     -2.55731550	     -7.63189654	     11.38900435	     -4.38407243	     -2.61609659	     -1.31613700	     -1.12350725	    -11.44825545	     13.54343206	      0.26510309	     -2.77696449	     -1.53001228	     -5.33221616
      0.11000000	      1.40517101	     -0.84921328	      1.86166630	     -1.14450886	      1.08057295	     -0.55875198	     -4.71632600	      2.62215140	     -2.47787689	     -7.55491534	     11.32219338	     -4.35127856	     -2.59873512	     -1.34843278	     -1.20973923	    -11.45117863	     13.55413044	      0.25642566	     -2.78471869	     -1.52516987	     -5.24954876
      0.12000000	      1.39122799	     -0.86176295	      1.84267292	     -1.14450640	      1.08055766	     -0.55868612	     -4.72894255	      2.63492246	     -2.48466782	     -7.50260855	     11.32729505	     -4.34366574	     -2.57953087	     -1.36071923	     -1.21972168	    -11.46290652	     13.55564285	      0.25371465	     -2.80145836	     -1.53863572	     -5.18949412
      0.13000000	      1.38487431	     -0.88930464	      1.78434074	     -1.14447693	      1.08055386	     -0.55855636	     -4.75016781	      2.66238259	     -2.40715268	     -7.44820280	     11.28660773	     -4.31138349	     -2.57136674	     -1.39065667	     -1.30040078	    -11.47847899	     13.58230466	      0.23790297	     -2.82157203	     -1.53761598	     -5.08897724
